:FULLY-SPECIFIED
:FORCE-ALL-JOINTS-BE-3DOF
:DEGREES
170
root 6.25754 16.0289 -25.6678 2.95167 20.4884 1.29596
lfemur -9.91011 13.0871 -4.31321
ltibia 24.3838 -0 0
lfoot -10.8382 -3.01823 0.641155
ltoes 46.107 -0 0
rfemur -37.4178 -19.1255 0.221688
rtibia 76.865 -0 0
rfoot 1.62964 -1.44784 0.213653
rtoes 23.0316 -0 0
lowerback 2.25422 -5.15816 -2.69012
upperback 0.725706 -6.8446 -2.92027
thorax -0.299854 -3.47245 -1.15918
lowerneck -11.6733 -3.80179 0.0675522
upperneck 2.68154 -5.37996 4.88998
head 3.08139 -2.46615 1.2535
lclavicle -4.32357e-014 -1.90833e-014 0
lhumerus -47.0809 -40.4331 107.948
lradius 51.7006 -0 0
lwrist 16.1805 0 0
lhand 35.5733 26.3916 0.150018
lfingers 7.12502 -0 0
lthumb 58.6109 41.3604 0.0863855
rclavicle -4.32357e-014 -1.90833e-014 0
rhumerus -56.5627 8.45238 -75.9913
rradius 108.411 -0 0
rwrist -9.88862 0 0
rhand 29.4621 -4.60588 0.0678177
rfingers 7.12502 -0 0
rthumb 53.1825 -23.6672 0.145685
171
root 6.20522 16.0112 -25.6466 3.1686 19.9383 1.46454
lfemur -9.39104 11.922 -3.68914
ltibia 23.6501 -0 0
lfoot -11.0873 -4.26951 0.646597
ltoes 46.5555 -0 0
rfemur -36.2253 -18.6379 -0.430061
rtibia 74.8185 -0 0
rfoot 0.0964121 -1.51589 0.215474
rtoes 24.5416 -0 0
lowerback 1.92096 -4.99885 -2.60556
upperback 0.664349 -6.6184 -3.12141
thorax -0.208208 -3.36057 -1.44264
lowerneck -11.7285 -3.7708 0.185208
upperneck 2.74077 -5.35905 4.88496
head 3.10762 -2.45234 1.2314
lclavicle -4.32357e-014 -1.90833e-014 0
lhumerus -47.4638 -40.5155 108.221
lradius 51.8496 -0 0
lwrist 16.4911 0 0
lhand 35.7436 26.8163 0.15128
lfingers 7.12502 -0 0
lthumb 58.758 41.6434 0.0871119
rclavicle -4.32357e-014 -1.90833e-014 0
rhumerus -56.6788 10.3922 -76.1781
rradius 109.165 -0 0
rwrist -9.79819 0 0
rhand 29.1816 -4.72236 0.068388
rfingers 7.12502 -0 0
rthumb 52.9292 -23.9444 0.14691
172
root 6.1529 15.9936 -25.6255 3.38308 19.3877 1.63034
lfemur -8.88702 10.7515 -3.07839
ltibia 22.9164 -0 0
lfoot -11.3365 -5.52079 0.646597
ltoes 47.0039 -0 0
rfemur -35.0422 -18.1376 -1.06913
rtibia 72.7719 -0 0
rfoot -1.43681 -1.58396 0.215474
rtoes 26.0515 -0 0
lowerback 1.58801 -4.83906 -2.52195
upperback 0.602221 -6.39241 -3.3227
thorax -0.117128 -3.24823 -1.72589
lowerneck -11.7836 -3.7397 0.30283
upperneck 2.8 -5.33814 4.87996
head 3.13385 -2.43852 1.20931
lclavicle -4.32357e-014 -1.90833e-014 0
lhumerus -47.8477 -40.5965 108.494
lradius 51.9985 -0 0
lwrist 16.8016 0 0
lhand 35.9139 27.241 0.15128
lfingers 7.12502 -0 0
lthumb 58.9051 41.9263 0.0871119
rclavicle -4.32357e-014 -1.90833e-014 0
rhumerus -56.8021 12.3316 -76.3702
rradius 109.919 -0 0
rwrist -9.70776 0 0
rhand 28.9011 -4.83883 0.068388
rfingers 7.12502 -0 0
rthumb 52.6759 -24.2216 0.14691
173
root 6.10058 15.9759 -25.6043 3.59516 18.8365 1.79341
lfemur -8.39754 9.57589 -2.48034
ltibia 22.1827 -0 0
lfoot -11.5857 -6.77207 0.641155
ltoes 47.4524 -0 0
rfemur -33.8683 -17.6249 -1.6954
rtibia 70.7254 -0 0
rfoot -2.97004 -1.65201 0.213653
rtoes 27.5615 -0 0
lowerback 1.25538 -4.67878 -2.4393
upperback 0.539322 -6.16665 -3.52414
thorax -0.0266147 -3.13545 -2.00893
lowerneck -11.8387 -3.70849 0.420418
upperneck 2.85923 -5.31722 4.87499
head 3.16007 -2.42469 1.18722
lclavicle -4.32357e-014 -1.90833e-014 0
lhumerus -48.2325 -40.6762 108.769
lradius 52.1475 -0 0
lwrist 17.1122 0 0
lhand 36.0842 27.6657 0.150018
lfingers 7.12502 -0 0
lthumb 59.0522 42.2093 0.0863855
rclavicle -4.32357e-014 -1.90833e-014 0
rhumerus -56.9331 14.2707 -76.5681
rradius 110.673 -0 0
rwrist -9.61733 0 0
rhand 28.6206 -4.95531 0.0678177
rfingers 7.12502 -0 0
rthumb 52.4226 -24.4988 0.145685
174
root 6.04825 15.9582 -25.5832 3.8049 18.2847 1.9538
lfemur -7.92207 8.39534 -1.8944
ltibia 21.449 -0 0
lfoot -11.8347 -8.02331 0.630275
ltoes 47.9009 -0 0
rfemur -32.7038 -17.1002 -2.30878
rtibia 68.6789 -0 0
rfoot -4.50325 -1.71998 0.210011
rtoes 29.0714 -0 0
lowerback 0.923052 -4.51803 -2.35759
upperback 0.475652 -5.9411 -3.72576
thorax 0.0633297 -3.02223 -2.29176
lowerneck -11.8937 -3.67717 0.537972
upperneck 2.91846 -5.2963 4.87003
head 3.18629 -2.41085 1.16514
lclavicle -4.32357e-014 -1.90833e-014 0
lhumerus -48.6183 -40.7544 109.044
lradius 52.2965 -0 0
lwrist 17.4227 0 0
lhand 36.2545 28.0903 0.147493
lfingers 7.12502 -0 0
lthumb 59.1992 42.4923 0.0849328
rclavicle -4.32357e-014 -1.90833e-014 0
rhumerus -57.0723 16.2092 -76.7725
rradius 111.427 -0 0
rwrist -9.52691 0 0
rhand 28.3401 -5.07178 0.0666773
rfingers 7.12502 -0 0
rthumb 52.1694 -24.7759 0.143235
175
root 5.99593 15.9405 -25.562 4.01236 17.7323 2.11157
lfemur -7.46014 7.21009 -1.32002
ltibia 20.7152 -0 0
lfoot -12.0833 -9.27448 0.613961
ltoes 48.3494 -0 0
rfemur -31.5484 -16.5637 -2.9092
rtibia 66.6324 -0 0
rfoot -6.03647 -1.78784 0.204552
rtoes 30.5814 -0 0
lowerback 0.591027 -4.3568 -2.27685
upperback 0.41121 -5.71578 -3.92754
thorax 0.152704 -2.90856 -2.57438
lowerneck -11.9486 -3.64573 0.655491
upperneck 2.97768 -5.27537 4.8651
head 3.2125 -2.397 1.14307
lclavicle -4.32357e-014 -1.90833e-014 0
lhumerus -49.005 -40.8313 109.321
lradius 52.4454 -0 0
lwrist 17.7333 0 0
lhand 36.4247 28.515 0.143707
lfingers 7.12502 -0 0
lthumb 59.3463 42.7752 0.0827538
rclavicle -4.32357e-014 -1.90833e-014 0
rhumerus -57.2202 18.1473 -76.984
rradius 112.181 -0 0
rwrist -9.43648 0 0
rhand 28.0596 -5.18825 0.0649667
rfingers 7.12502 -0 0
rthumb 51.9161 -25.0531 0.139559
176
root 5.94361 15.9229 -25.5409 4.2176 17.1794 2.26677
lfemur -7.01128 6.02035 -0.756637
ltibia 19.9815 -0 0
lfoot -12.3316 -10.5256 0.592221
ltoes 48.7979 -0 0
rfemur -30.4021 -16.0159 -3.49658
rtibia 64.5859 -0 0
rfoot -7.56967 -1.85552 0.19728
rtoes 32.0913 -0 0
lowerback 0.259301 -4.19512 -2.19705
upperback 0.345996 -5.49068 -4.1295
thorax 0.241507 -2.79445 -2.8568
lowerneck -12.0035 -3.61418 0.772976
upperneck 3.03689 -5.25443 4.86019
head 3.2387 -2.38313 1.121
lclavicle -4.32357e-014 -1.90833e-014 0
lhumerus -49.3927 -40.9067 109.598
lradius 52.5944 -0 0
lwrist 18.0438 0 0
lhand 36.595 28.9397 0.138659
lfingers 7.12502 -0 0
lthumb 59.4933 43.0582 0.0798485
rclavicle -4.32357e-014 -1.90833e-014 0
rhumerus -57.3775 20.0848 -77.2033
rradius 112.935 -0 0
rwrist -9.34605 0 0
rhand 27.7791 -5.3047 0.062686
rfingers 7.12502 -0 0
rthumb 51.6629 -25.3302 0.134658
177
root 5.89129 15.9052 -25.5197 4.42068 16.626 2.41945
lfemur -6.57508 4.82633 -0.203738
ltibia 19.2478 -0 0
lfoot -12.5793 -11.7766 0.565067
ltoes 49.2464 -0 0
rfemur -29.2648 -15.4568 -4.07087
rtibia 62.5394 -0 0
rfoot -9.10287 -1.92299 0.188199
rtoes 33.6013 -0 0
lowerback -0.0721326 -4.03297 -2.11822
upperback 0.28001 -5.26582 -4.33165
thorax 0.329738 -2.67991 -3.13901
lowerneck -12.0583 -3.58252 0.890427
upperneck 3.09611 -5.23349 4.8553
head 3.2649 -2.36926 1.09895
lclavicle -4.32357e-014 -1.90833e-014 0
lhumerus -49.7812 -40.9807 109.877
lradius 52.7434 -0 0
lwrist 18.3544 0 0
lhand 36.7651 29.3643 0.132349
lfingers 7.12502 -0 0
lthumb 59.6404 43.3412 0.076217
rclavicle -4.32357e-014 -1.90833e-014 0
rhumerus -57.5449 22.0217 -77.4312
rradius 113.689 -0 0
rwrist -9.25562 0 0
rhand 27.4987 -5.42114 0.0598353
rfingers 7.12502 -0 0
rthumb 51.4097 -25.6074 0.128533
178
root 5.83896 15.8875 -25.4986 4.62165 16.0721 2.56965
lfemur -6.15111 3.62821 0.339185
ltibia 18.5141 -0 0
lfoot -12.8264 -13.0274 0.532512
ltoes 49.6948 -0 0
rfemur -28.1364 -14.887 -4.63205
rtibia 60.4929 -0 0
rfoot -10.6361 -1.99018 0.177316
rtoes 35.1112 -0 0
lowerback -0.403277 -3.87038 -2.04034
upperback 0.213251 -5.04119 -4.53398
thorax 0.417395 -2.56494 -3.42102
lowerneck -12.113 -3.55075 1.00784
upperneck 3.15532 -5.21255 4.85043
head 3.29109 -2.35538 1.07689
lclavicle -4.32357e-014 -1.90833e-014 0
lhumerus -50.1707 -41.0532 110.156
lradius 52.8923 -0 0
lwrist 18.6649 0 0
lhand 36.9353 29.7889 0.124778
lfingers 7.12502 -0 0
lthumb 59.7874 43.6241 0.0718595
rclavicle -4.32357e-014 -1.90833e-014 0
rhumerus -57.7231 23.958 -77.6686
rradius 114.443 -0 0
rwrist -9.1652 0 0
rhand 27.2182 -5.53757 0.0564145
rfingers 7.12502 -0 0
rthumb 51.1565 -25.8845 0.121183
179
root 5.78664 15.8698 -25.4774 4.82056 15.5177 2.71742
lfemur -5.73899 2.42617 0.87262
ltibia 17.7804 -0 0
lfoot -13.0727 -14.2781 0.494572
ltoes 50.1433 -0 0
rfemur -27.0167 -14.3066 -5.18006
rtibia 58.4464 -0 0
rfoot -12.1692 -2.05707 0.16464
rtoes 36.6212 -0 0
lowerback -0.734137 -3.70734 -1.96341
upperback 0.145719 -4.81679 -4.7365
thorax 0.504476 -2.44953 -3.70283
lowerneck -12.1677 -3.51886 1.12522
upperneck 3.21452 -5.1916 4.84559
head 3.31728 -2.34149 1.05485
lclavicle -4.32357e-014 -1.90833e-014 0
lhumerus -50.5611 -41.1244 110.437
lradius 53.0413 -0 0
lwrist 18.9755 0 0
lhand 37.1053 30.2135 0.115947
lfingers 7.12502 -0 0
lthumb 59.9344 43.907 0.0667761
rclavicle -4.32357e-014 -1.90833e-014 0
rhumerus -57.913 25.8935 -77.9165
rradius 115.197 -0 0
rwrist -9.07477 0 0
rhand 26.9377 -5.65398 0.0524239
rfingers 7.12502 -0 0
rthumb 50.9034 -26.1615 0.112609
180
root 5.73432 15.8521 -25.4563 5.01746 14.9628 2.86281
lfemur -5.33835 1.22038 1.39704
ltibia 17.0466 -0 0
lfoot -13.3181 -15.5286 0.451266
ltoes 50.5918 -0 0
rfemur -25.9057 -13.7161 -5.71491
rtibia 56.3999 -0 0
rfoot -13.7024 -2.12358 0.150178
rtoes 38.1311 -0 0
lowerback -1.06472 -3.54386 -1.88745
upperback 0.077413 -4.59264 -4.93923
thorax 0.590981 -2.3337 -3.98444
lowerneck -12.2223 -3.48686 1.24257
upperneck 3.27372 -5.17064 4.84076
head 3.34346 -2.32759 1.03281
lclavicle -4.32357e-014 -1.90833e-014 0
lhumerus -50.9523 -41.1941 110.718
lradius 53.1902 -0 0
lwrist 19.286 0 0
lhand 37.2753 30.6381 0.105856
lfingers 7.12502 -0 0
lthumb 60.0813 44.1899 0.060967
rclavicle -4.32357e-014 -1.90833e-014 0
rhumerus -58.1157 27.8283 -78.1759
rradius 115.951 -0 0
rwrist -8.98434 0 0
rhand 26.6573 -5.77037 0.0478635
rfingers 7.12502 -0 0
rthumb 50.6503 -26.4385 0.102811
181
root 5.682 15.8345 -25.4351 5.21241 14.4074 3.00586
lfemur -4.94886 0.0110077 1.91289
ltibia 16.3129 -0 0
lfoot -13.5625 -16.7789 0.402615
ltoes 51.0403 -0 0
rfemur -24.8031 -13.1156 -6.23657
rtibia 54.3534 -0 0
rfoot -15.2355 -2.18969 0.133942
rtoes 39.6411 -0 0
lowerback -1.39502 -3.37994 -1.81245
upperback 0.00833335 -4.36873 -5.14216
thorax 0.676908 -2.21745 -4.26585
lowerneck -12.2768 -3.45475 1.35988
upperneck 3.33292 -5.14968 4.83596
head 3.36964 -2.31367 1.01077
lclavicle -4.32357e-014 -1.90833e-014 0
lhumerus -51.3444 -41.2623 111.001
lradius 53.3392 -0 0
lwrist 19.5966 0 0
lhand 37.4453 31.0626 0.0945049
lfingers 7.12502 -0 0
lthumb 60.2283 44.4728 0.0544323
rclavicle -4.32357e-014 -1.90833e-014 0
rhumerus -58.3322 29.7622 -78.448
rradius 116.706 -0 0
rwrist -8.89391 0 0
rhand 26.3768 -5.88673 0.0427335
rfingers 7.12502 -0 0
rthumb 50.3972 -26.7155 0.0917894
182
root 5.62967 15.8168 -25.414 5.40546 13.8515 3.14662
lfemur -4.57019 -1.20179 2.42063
ltibia 15.5792 -0 0
lfoot -13.8057 -18.0289 0.348643
ltoes 51.4888 -0 0
rfemur -23.7088 -12.5055 -6.74505
rtibia 52.3069 -0 0
rfoot -16.7686 -2.25534 0.115943
rtoes 41.151 -0 0
lowerback -1.72506 -3.21559 -1.7384
upperback -0.0615209 -4.14506 -5.3453
thorax 0.762256 -2.10077 -4.54706
lowerneck -12.3313 -3.42253 1.47716
upperneck 3.39211 -5.12872 4.83118
head 3.39581 -2.29975 0.988747
lclavicle -4.32357e-014 -1.90833e-014 0
lhumerus -51.7374 -41.3291 111.284
lradius 53.4882 -0 0
lwrist 19.9071 0 0
lhand 37.6151 31.4871 0.0818955
lfingers 7.12502 -0 0
lthumb 60.3752 44.7557 0.0471722
rclavicle -4.32357e-014 -1.90833e-014 0
rhumerus -58.564 31.6952 -78.7342
rradius 117.46 -0 0
rwrist -8.80349 0 0
rhand 26.0964 -6.00307 0.0370339
rfingers 7.12502 -0 0
rthumb 50.1443 -26.9924 0.0795452
